inDegrees=no
num_controls=7
num_derivatives=13
num_iterations=77
num_multipliers=7
num_parameters=0
num_slacks=7
num_states=26
objective=0.349745
objective_accelerations=0.034728
objective_balance=0.007584
objective_effort=0.038931
objective_height=0.265457
objective_ligament=0.003045
solver_duration=1008.946169
status=Solve_Succeeded
success=true
DataType=double
version=3
OpenSimVersion=4.5
endheader
time	/jointset/ground_pelvis/pelvis_tilt/value	/jointset/ground_pelvis/pelvis_tx/value	/jointset/ground_pelvis/pelvis_ty/value	/jointset/hip_l/hip_flexion_l/value	/jointset/hip_l/hip_adduction_l/value	/jointset/hip_l/hip_rotation_l/value	/jointset/back/lumbar_extension/value	/jointset/patellofemoral_l/patellar_flexion_l/value	/jointset/knee_l/knee_flexion_l/value	/jointset/knee_l/knee_adduction_l/value	/jointset/knee_l/knee_rotation_l/value	/jointset/ankle_l/ankle_angle_l/value	/jointset/subtalar_l/subtalar_angle_l/value	/jointset/ground_pelvis/pelvis_tilt/speed	/jointset/ground_pelvis/pelvis_tx/speed	/jointset/ground_pelvis/pelvis_ty/speed	/jointset/hip_l/hip_flexion_l/speed	/jointset/hip_l/hip_adduction_l/speed	/jointset/hip_l/hip_rotation_l/speed	/jointset/back/lumbar_extension/speed	/jointset/patellofemoral_l/patellar_flexion_l/speed	/jointset/knee_l/knee_flexion_l/speed	/jointset/knee_l/knee_adduction_l/speed	/jointset/knee_l/knee_rotation_l/speed	/jointset/ankle_l/ankle_angle_l/speed	/jointset/subtalar_l/subtalar_angle_l/speed	/forceset/tau_hip_flexion_l	/forceset/tau_hip_adduction_l	/forceset/tau_hip_rotation_l	/forceset/tau_knee_flexion_l	/forceset/tau_ankle_angle_l	/forceset/tau_subtalar_angle_l	/forceset/tau_lumbar_extension	lambda_cid13_p0	lambda_cid13_p1	lambda_cid13_p2	lambda_cid13_p3	lambda_cid13_p4	lambda_cid13_p5	lambda_cid14_p0	/jointset/ground_pelvis/pelvis_tilt/accel	/jointset/ground_pelvis/pelvis_tx/accel	/jointset/ground_pelvis/pelvis_ty/accel	/jointset/hip_l/hip_flexion_l/accel	/jointset/hip_l/hip_adduction_l/accel	/jointset/hip_l/hip_rotation_l/accel	/jointset/back/lumbar_extension/accel	/jointset/patellofemoral_l/patellar_flexion_l/accel	/jointset/knee_l/knee_flexion_l/accel	/jointset/knee_l/knee_adduction_l/accel	/jointset/knee_l/knee_rotation_l/accel	/jointset/ankle_l/ankle_angle_l/accel	/jointset/subtalar_l/subtalar_angle_l/accel	gamma_cid13_p0	gamma_cid13_p1	gamma_cid13_p2	gamma_cid13_p3	gamma_cid13_p4	gamma_cid13_p5	gamma_cid14_p0
0	-0.1572832248995204	0.05750166769677596	0.8979032894634618	0.3774924667018715	-0.2605071373617351	-0.249373931875716	-0.01265067647494873	0.03223648243721119	0.03223648243721463	-0.1745301453186306	0.1520126477601813	-0.04231377076293093	-0.01090677490179504	0	0	0	0	0	0	0	0	0	0	0	0	0	0.1533224436060926	-0.04304152317283939	-0.04026110710320911	-0.2551792021237097	0.2322892748030248	-0.06118849194124521	-0.1133080623902806	34.70366918947548	14.27366773618588	4.431425141121275	15.43506426626852	-539.3313441119546	-43.35553751169154	-38.38931983224458	-2.487837802377818	-3.640386867981129	-1.819559011714832	23.38266443908372	-0.9017881043495035	7.648222937120481	-11.80443588912058	27.59160908346814	27.59160908346837	5.118721397192666	1.726261993681145	8.361186280706447	0.9249768418274815	-1.822008974272562e-08	1.438244530288975e-06	1.142143425210494e-07	-7.29332870857685e-08	1.503923438728917e-06	-1.165577429408431e-07	1.021948537183528e-07
0.01	-0.1573979098429706	0.05732401631558227	0.8978149874409033	0.3786291596460574	-0.2605504160911964	-0.2489908923378479	-0.01323591747039403	0.03358628631981939	0.03358628631981739	-0.1742771297511131	0.1520885492789744	-0.04190272186825648	-0.01086035402736969	-0.02276208977986292	-0.03513264201776792	-0.01758700195320382	0.2256333095202815	-0.008407578323694412	0.07604862217608344	-0.1156955062951339	0.2681358808731483	0.2681358808731517	0.0505284401191749	0.01502868094377519	0.08189031237637712	0.00945395658513176	0.1447473762451885	-0.05252333642224587	-0.03930315872773212	-0.2507365583988077	0.2280944338477651	-0.04777800727099123	-0.1048882023879759	33.77168673569151	8.927233438263073	4.924491433918649	13.27248297119364	-542.9782934538698	-53.60646148841457	-38.42930461047194	-2.144218768157544	-3.390072321975916	-1.716959618660579	21.89784064968658	-0.7733492837855827	7.499344586566086	-11.24920408068817	26.15082280309975	26.15082280310012	5.008993522902084	1.368514574359262	8.055044397751491	0.980832516967168	-1.107025156734773e-07	1.883249650245975e-06	4.914925991571752e-08	1.285069076057236e-07	8.70331509708815e-07	8.623703168167578e-08	1.576291376310316e-07
0.02	-0.1577349805246962	0.05680696462355102	0.8975530776325049	0.3819710209736799	-0.2606703919213749	-0.247864134032475	-0.01493753274498903	0.0375626980539211	0.03756269805391988	-0.1735210121416607	0.1523102062931429	-0.04068235171348817	-0.01071434809707087	-0.04447714765439491	-0.06788006216751775	-0.03472155716799503	0.441033676688023	-0.01533942014363488	0.1487437535007181	-0.2232748558294108	0.5253215703007569	0.5253215703007597	0.1006204083832386	0.0291510990728905	0.1618642520186794	0.0199170111747097	0.1361723088842416	-0.0620051496716507	-0.03834521035221382	-0.246293914673957	0.2238995928924858	-0.03436752260074057	-0.09646834238568863	33.09426009463722	3.554354636023043	5.401075372201644	10.61675683778632	-542.8233773412237	-63.48303916992269	-38.54555867810211	-2.278431421311701	-3.163342494377436	-1.729069664032312	21.33607596857571	-0.6066408035987406	6.977524766830722	-10.18120453694921	25.4015707943602	25.40157079435958	5.031427026170386	1.545009430749162	7.977911733891564	1.126796442716712	-2.03184941604229e-07	2.328254770202975e-06	-1.591582268961439e-08	3.299471022972157e-07	2.36739580688713e-07	2.890318063041947e-07	2.130634215437104e-07
0.03	-0.1582854626534367	0.05597300366314502	0.8971201895669781	0.3874204825461151	-0.260852577072934	-0.246030353079966	-0.01767672058030242	0.04405876298190362	0.04405876298189696	-0.1722682413099839	0.1526708586382108	-0.03867329555403669	-0.01045938454121604	-0.06545668131996768	-0.09864481433579683	-0.05193811849578787	0.6473881111710088	-0.02094293094472109	0.2173602304931483	-0.3235930128069824	0.7721653028610652	0.7721653028610926	0.1495427374854304	0.0428178937093265	0.2394268188427084	0.03109749340652802	0.1276395422096523	-0.05641390800426327	-0.03712498253527514	-0.2400258919931121	0.2173541173498545	-0.0350780794346792	-0.08901767965742392	31.19181408233377	4.139330437790988	5.372603500273116	10.51772164892258	-540.1010365754989	-60.71377943393428	-38.73041604329389	-1.983348995127927	-2.992877437837648	-1.730213962969702	20.06452359628686	-0.5144083738293638	6.705987191629302	-9.811666514349511	24.06681478503332	24.06681478503737	4.764387269657369	1.253445970590186	7.567411012822742	1.116582202685268	-2.215814902881067e-07	2.125568280903955e-06	2.698808813358998e-08	3.656286776314281e-07	1.485033543560861e-08	2.255539126993072e-07	1.941776681534719e-07
